<?xml version="1.0" encoding="utf-8"?>
<!-- Generator: Adobe Illustrator 21.0.0, SVG Export Plug-In . SVG Version: 6.00 Build 0)  -->
<svg version="1.1" id="Laag_1" xmlns="http://www.w3.org/2000/svg" xmlns:xlink="http://www.w3.org/1999/xlink" x="0px" y="0px"
	 viewBox="0 0 500 800" style="enable-background:new 0 0 500 800;" xml:space="preserve">
<style type="text/css">
	.st0{fill:#172338;}
	.st1{fill:#FFFFFF;}
	.st2{fill:#FCC635;}
</style>
<path class="st0" d="M59.6,280.1c19.8,38,41.2,77.9,59.5,114.6c25.2-13,50.6-28.8,76.2-43.6c3.2-1.9,10.5-4.8,10.8-5.8
	c0.9-2.2-9.6-18.4-10.8-20.9c-9.5-18.1-17.5-33.2-27.2-52.1c-1.1-2.3-5-9-4.8-10.2c1-3.9,8.8-4.4,11.1-7
	c-5.5-14.5-10.1-34.4-5.6-55.4c5.3-24.8,19.4-42.5,33.3-54.1c-2.1-13.1-8.8-25.7,0.5-39.6c14.8-21.8,49.3-8.4,70.7,6
	c3.1,2.1,6.1,5.3,8.9,6.3c3.1,1,7.4-0.1,11.6-0.3c17.5-0.3,43.6,2.1,55.6,16.2c3.5,3.7,6.8,9.1,7.1,15.3c1.1,17.3-11.9,25.6-21,34.9
	c4.3,15.4,7.2,35.1,1.2,55.9c-6.7,23.5-22.1,40.9-36.4,50.6c0.8,4.4,3.6,7.9,5.7,11.7l0,0l102.6-25.1c-3.2-6.3-6.7-12.3-9.8-18
	c-11.3-21.7-23.6-40.8-34.7-63c6.1-1.8,7.8-12.4,10.1-22.3c2.7-10.9,7-20.2,2.7-23.9c-2.5-2.2-6.3-1.3-10.2,0.2
	c7.2-33.3,0.3-66.2-12.5-89.5c-9.2-16.8-23.5-36-49.9-41.7c-19.2-4.1-37.5,2.3-51.4,10.3c-23.9,13.5-46.5,37.2-58.4,69.9
	c-2.7-0.5-3.5-5.1-8.3-4.8c-4.7,0.3-7.1,6.8-9.8,15.5c-3.5,11.1-9.1,24.4-4.4,29.7c-19.8,11.9-40,22.3-61.2,34
	c-22.5,12.6-50.1,21.6-57.9,60.1C49.6,250.8,53.5,266.8,59.6,280.1z"/>
<path class="st1" d="M174.7,201.8c-8.7,39.9,12.2,76.8,49.1,90.7c4.1,1.6,8.3,2.8,12.2,3.5c41.3,8.9,81.6-13.1,94-59
	c5.8-21.6,2.8-37.3-3.6-54.2c5.1-4.7,9.4-6.8,13.4-11.2c3.8-4.1,9.3-11.9,9.2-19.3c-0.6-24.5-36.6-27.7-58-27c-3.7,0-8.5,1.2-11,0.4
	c-2.7-0.7-5.5-4-8.9-6.3c-11.9-8.2-33.8-21-50.3-17.8c-5.4,1-13.5,5.3-15.7,12.4c-3.9,12,1.3,24.1,4.6,34.1
	C195.1,157.6,180.3,177.1,174.7,201.8z"/>
<path class="st0" d="M275.3,189.4c6.5-0.2,11.4,3.7,10.7,8.7c-1.3,10.8-20.4,11.8-25.4,1.9C262.9,194.4,269.6,189.3,275.3,189.4z"/>
<path class="st0" d="M235.4,183.2c1.7-3.5,6.3-4.4,10.6-3.2c7.4,2.4,11.6,11.6,9.5,19.2C245.8,203.7,230.8,193.2,235.4,183.2z"/>
<path class="st0" d="M216,217.5c1,4-0.2,7.2,0.5,10.4c4.5,18.2,29.1,25,49.8,32.1c4.3,1.5,12,1.3,10.9,6.4
	c-2.6,2.3-7.2,0.6-10.8,0.1c-30.8-5.2-70.5-19.1-53.5-50.5c0.6,0.1,0.9,0.1,1.2,0.3C214.9,216.6,215.1,217.4,216,217.5z"/>
<path class="st0" d="M174.7,201.8c-8.7,39.9,12.2,76.8,49.1,90.7c4.1,1.6,8.3,2.8,12.2,3.5c41.3,8.9,81.6-13.1,94-59
	c5.8-21.6,2.8-37.3-3.6-54.2c5.1-4.7,9.4-6.8,13.4-11.2c3.8-4.1,9.3-11.9,9.2-19.3c-0.6-24.5-36.6-27.7-58-27c-3.7,0-8.5,1.2-11,0.4
	c-2.7-0.7-5.5-4-8.9-6.3c-11.9-8.2-33.5-21-50.3-17.8c-5.4,1-13.5,5.3-15.7,12.4c-3.9,12,1.3,24.1,4.6,34.1
	C195.1,157.6,180.3,177.1,174.7,201.8z M237.3,127.1c1.4-4.6,4.5-5.9,7.9-8.5c7.5,1.8,12.6,5.1,16.1,9.1
	C262.8,151.3,231.6,145.3,237.3,127.1z M291.4,150.8c7.2,5.1,19,4.7,24.3-1.7C312.8,163.2,295,161,291.4,150.8z M202.5,196.1
	c3.5-5.4,8.7-9.8,10.9-14.6c1.7-3.5,2.4-8.8,4-11.5c7.6-12.9,32.9-21.1,50.2-2.3c20.3-6.4,39.3,10.8,40.5,26.4
	c0.5,5.6-1.9,8.4-2.4,14.5c-0.4,2.9,1.3,6.5,1.4,9.3c0.9,12.8,0.6,29.1-5.6,44.5c-19.2,47.8-105.7,23.9-113.5-18.5
	C185.1,228.2,195.1,208.4,202.5,196.1z"/>
<path class="st0" d="M223.3,348.1c-0.6,2.1,4.4,8.6,5.8,11.1c13.3,25.4,24,46.9,37.4,72.9c0.7,1.5,2.7,5.3,2.7,5.3
	c1.5,0.5,18-9.8,19.5-10.7c33.3-19.2,64.2-35.6,96.2-55.9c12.8-8,24.6-19.9,30-38.6c6.9-23,0.7-40.2-7.4-55.8L305,301.5
	c-24.3,14.4-45.8,26.2-71.2,40.9C231.4,343.9,223.9,348,223.3,348.1z"/>
<path class="st1" d="M315.7,148c-1.6,18.8-32.9,12.9-22.5-8.4c5.1-2.4,10.8-3.5,18.4-2.5C313.8,140.5,316.1,143.1,315.7,148z"/>
<rect x="137" y="314" class="st2" width="301" height="486"/>
</svg>
