<?xml version="1.0" encoding="utf-8"?>
<!-- Generator: Adobe Illustrator 21.0.0, SVG Export Plug-In . SVG Version: 6.00 Build 0)  -->
<svg version="1.1" id="Layer_1" xmlns="http://www.w3.org/2000/svg" xmlns:xlink="http://www.w3.org/1999/xlink" x="0px" y="0px"
	 viewBox="0 0 600 300" style="enable-background:new 0 0 600 300;" xml:space="preserve">
<style type="text/css">
	.st0{fill:#172338;}
	.st1{fill:#FFFFFF;}
	.st2{fill:#FCC635;}
</style>
<path class="st0" d="M183.6,97.4c-6.1-12.9-16.6-13.7-25.6-16.2c-8.5-2.3-16.5-4.2-24.5-6.7c1.2-2.3-1.9-6.5-4.1-10.1
	c-1.7-2.8-3.1-4.9-4.8-4.6c-1.7,0.3-1.6,2-2.5,2.4c-7-10.5-17-16.9-26.6-19.6c-5.6-1.6-12.6-2.3-19,0.8c-8.8,4.3-12.2,12.3-14,19
	c-2.5,9.3-2.1,21.5,3.3,32.6c-1.5-0.2-2.9-0.2-3.6,0.8c-1.2,1.7,1.1,4.6,3,8.2c1.7,3.3,3.2,6.9,5.5,7c-2,8.8-4.7,16.6-6.8,25.2
	c-0.6,2.3-1.3,4.7-1.9,7.2h38.3c0,0,0,0,0,0c0.4-1.5,1.1-3,1-4.6c-5.9-2.2-12.8-7-17.2-14.7c-3.9-6.8-4.6-14-4.4-19.8
	c-4-2.5-9.3-4.3-10.4-10.5c-0.4-2.2,0.3-4.4,1.2-6c3-6,12-9.1,18.2-10.5c1.5-0.3,3.1-0.3,4.1-0.9c0.9-0.6,1.7-2,2.6-3
	c6.3-6.9,17.3-14.6,24.4-8.2c4.5,4.1,3.2,9.1,3.6,13.9c5.9,2.9,12.4,7.9,16.4,16.2c3.4,7,3.5,14.4,2.8,20c1,0.7,3.8,0.2,4.5,1.5
	c0.2,0.4-0.6,3.1-0.8,4c-1.8,7.5-3.3,13.5-5.1,20.7c-0.2,1-2.5,7.6-2,8.3c0.2,0.3,3,0.7,4.3,1.1c10.3,3,20.6,6.4,30.6,8.8
	c3.3-14.5,7.4-30.4,11.1-45.5C186.2,109,186.2,103,183.6,97.4z"/>
<path class="st1" d="M120.9,80.6c0.3-3.8,1.1-8.5-1.3-12.4c-1.4-2.3-4.6-3.1-6.6-3c-6.1,0.3-12.7,6.7-16.2,10.6
	c-1,1.1-1.7,2.5-2.6,3c-0.8,0.5-2.6,0.5-3.9,0.8c-7.6,1.6-20,5.8-18.1,14.5c0.6,2.6,3.2,4.9,4.9,6c1.8,1.2,3.5,1.6,5.7,2.8
	c-0.8,6.5-0.5,12.3,3.4,19.4c8.3,15.1,24.4,19.4,38.2,12.7c1.3-0.6,2.7-1.4,4-2.3c11.8-8.1,16-22.9,9.5-36.2
	C133.8,88.3,126.9,82.7,120.9,80.6z"/>
<polygon class="st2" points="442.8,143.5 356.9,143.5 245,143.5 198.7,143.5 1,143.5 1,170.5 198.7,170.5 245,170.5 356.9,170.5 
	442.8,170.5 601,170.5 601,143.5 "/>
<path class="st0" d="M107.5,103.3c-0.9,3.9-7.7,5.2-9.1,1.5c-0.7-1.7,0.7-3.5,3-4C103.4,100.3,106.2,101.5,107.5,103.3z"/>
<path class="st0" d="M109.2,102.6c-1.4-2.5-0.7-6.1,1.7-7.6c1.4-0.8,3.1-0.9,4,0.2C117.4,98.3,113,103.3,109.2,102.6z"/>
<path class="st0" d="M125.2,105c0.1-0.1,0.2-0.1,0.4-0.2c8.7,9.6-4.1,17.9-14.5,22.4c-1.2,0.5-2.7,1.5-3.8,0.9
	c-0.8-1.7,1.9-2.3,3.3-3.2c6.7-4.3,14.8-8.8,14.8-15.6c0-1.2-0.7-2.2-0.7-3.7C125,105.5,125,105.2,125.2,105z"/>
<path class="st0" d="M120.9,80.6c0.3-3.8,1.1-8.5-1.3-12.4c-1.4-2.3-4.6-3.1-6.6-3c-6.2,0.3-12.7,6.7-16.2,10.6
	c-1,1.1-1.7,2.5-2.6,3c-0.8,0.5-2.6,0.5-3.9,0.8c-7.6,1.6-20,5.8-18.1,14.5c0.6,2.6,3.2,4.9,4.9,6c1.8,1.2,3.5,1.6,5.7,2.8
	c-0.8,6.5-0.5,12.3,3.4,19.4c8.3,15.1,24.4,19.4,38.2,12.7c1.3-0.6,2.7-1.4,4-2.3c11.8-8.1,16-22.9,9.5-36.2
	C133.8,88.3,126.9,82.7,120.9,80.6z M101,77.9c0.9-1.7,2.4-3.3,4.9-4.6c1.4,0.6,2.6,0.8,3.5,2.3C113,81.5,102.5,86.3,101,77.9z
	 M83.7,90.1c2.4,1.8,6.6,0.9,8.7-1.5C92,92.5,85.9,94.8,83.7,90.1z M136.8,112.5c0.9,15.6-27.5,31.5-38.4,16.3
	c-3.5-4.9-5-10.6-5.8-15.2c-0.2-1,0.1-2.4-0.3-3.4c-0.7-2.1-1.8-2.9-2.1-4.9c-0.9-5.6,4.3-13.3,12-12.8c4.5-8.1,14.1-7.4,17.9-3.5
	c0.8,0.8,1.5,2.6,2.4,3.7c1.2,1.5,3.4,2.6,5.1,4.2C131.3,100.6,136.5,106.7,136.8,112.5z"/>
<rect x="13.6" y="143.5" class="st1" width="17.7" height="26.9"/>
<rect x="53.2" y="143.5" class="st1" width="17.7" height="26.9"/>
<rect x="92.7" y="143.5" class="st1" width="17.7" height="26.9"/>
<rect x="132.3" y="143.5" class="st1" width="17.7" height="26.9"/>
<rect x="171.8" y="143.5" class="st1" width="17.7" height="26.9"/>
<rect x="211.4" y="143.5" class="st1" width="17.7" height="26.9"/>
<path class="st0" d="M128.9,151.6c-10.2-3-18.8-5.3-28.6-8.3H62c-1.5,6.2-2.2,12.8,2.2,20.3c3.5,6.1,8.7,9.3,13.9,11
	c13,4.4,25.3,7.5,38.7,11.4c0.6,0.2,7.3,2.4,7.8,2.1c0,0,0.4-1.5,0.5-2.1c2.5-10.3,4.4-18.8,6.9-28.9c0.3-1,1.5-3.7,1.1-4.4
	C132.9,152.7,129.9,151.9,128.9,151.6z"/>
<rect x="211.4" y="143.5" class="st1" width="17.7" height="26.9"/>
<rect x="250.9" y="143.5" class="st1" width="17.7" height="26.9"/>
<rect x="290.5" y="143.5" class="st1" width="17.7" height="26.9"/>
<rect x="330" y="143.5" class="st1" width="17.7" height="26.9"/>
<rect x="369.6" y="143.5" class="st1" width="17.7" height="26.9"/>
<rect x="409.1" y="143.5" class="st1" width="17.7" height="26.9"/>
<rect x="330" y="143.5" class="st1" width="17.7" height="26.9"/>
<rect x="369.6" y="143.5" class="st1" width="17.7" height="26.9"/>
<rect x="409.1" y="143.5" class="st1" width="17.7" height="26.9"/>
<rect x="448.6" y="143.5" class="st1" width="17.7" height="26.9"/>
<rect x="369.6" y="143.5" class="st1" width="17.7" height="26.9"/>
<rect x="409.1" y="143.5" class="st1" width="17.7" height="26.9"/>
<rect x="448.6" y="143.5" class="st1" width="17.7" height="26.9"/>
<rect x="488.2" y="143.5" class="st1" width="17.7" height="26.9"/>
<rect x="527.7" y="143.5" class="st1" width="17.7" height="26.9"/>
<rect x="567.3" y="143.5" class="st1" width="17.7" height="26.9"/>
<path class="st0" d="M253,183.2c4.3-1.4,6.4,1.7,5.6,5.3c-1.2,4.8-9.5,3.1-8.1-2.9C250.7,184.8,251.6,183.7,253,183.2z"/>
<path class="st0" d="M274,183c0,11.7,0,23.4,0,35.1c0.7,0.4,2.1,0.3,3,0.5c0.2,1.2-0.3,3.2,0.3,4c-3.8,0.6-8.7,0.1-12.9,0.3
	c0-1.4,0-2.8,0-4.2c1.2,0.1,2.4,0.1,3-0.5c0.6-9.2,0.1-19.6,0.3-29.3c-0.4-1-1.9-1-3.3-1.1c0.1-1.5-0.3-3.6,0.3-4.7
	C267.7,183,270.9,183,274,183z"/>
<path class="st0" d="M289.9,183c0,11.6,0,23.2,0,34.8c0.5,0.9,2.2,0.6,3.3,0.8c0,1.4,0,2.8,0,4.2c-4.3,0-8.6,0-12.9,0
	c0-1.4,0-2.8,0-4.2c1.2,0.1,2.4,0.1,3-0.5c0.6-9.2,0.1-19.6,0.3-29.3c-0.4-1-1.9-1-3.3-1.1c0.1-1.5-0.3-3.6,0.3-4.7
	C283.6,183,286.8,183,289.9,183z"/>
<path class="st0" d="M189.1,187.2c0,3.3,0,6.5,0,9.8c-2-0.1-3.3,0.5-5.3,0.3c0-1.9,0.1-4-0.3-5.5c-4-1.8-8.4-1.3-11.1,0.8
	c-6,4.6-5.4,19.9-0.3,24c2.3,1.8,7.9,2.3,11.1,0.3c0-2.7,0-5.5,0-8.2c-0.9-0.6-2.9-0.1-4.3-0.3c0-1.6,0-3.2,0-4.7
	c4.5,0,8.9,0,13.4,0c0,1.3,0,2.6,0,4c-0.2,1-2,0.3-2.5,1.1c-0.5,3.4-0.1,7.8-0.3,11.6c-3.8,2.4-8.4,4.1-14.6,3.4
	c-10.3-1.1-14.1-11-13.4-21.1c0.7-10.7,7.3-18.3,19.4-17.4C184.1,185.3,185.9,186.1,189.1,187.2z"/>
<path class="st0" d="M206,194.3c8.2-1.3,13.3,3.1,14.1,10.3c1,8-1.6,15.3-6.6,17.9c-4.6,2.4-12.1,1.3-15.1-2.6
	c-3.3-4.3-4.3-15.9-0.3-21.4C199.8,196.3,202.5,194.9,206,194.3z M204.8,218.1c2.2,1.6,5.3,0.8,6.6-0.3c2.9-2.5,3.8-14.4,0.3-17.7
	c-1.4-1.3-3.5-1.3-5.3-0.8C201,200.8,200.6,215.1,204.8,218.1z"/>
<path class="st0" d="M245.4,195.1c0,2.8,0,5.6,0,8.4c-1.5,0.3-3.6,0.1-5,0.5c0-1.4,0.2-3-0.3-4c-8.5-2.7-6.4,10.2-6.6,17.9
	c1.3,0.4,2.9,0.5,4.5,0.5c0.2,1.2-0.3,3.2,0.3,4c-4.4,0.6-9.8,0.1-14.6,0.3c0-1.3,0-2.6,0-4c0.7-0.5,2.3,0,3-0.5
	c1-5,0.5-12.8,0.3-18.2c-0.8-0.7-2.3-0.6-3.5-0.8c0.4-0.9,0.5-3.4,0-4.2c2.5-0.6,6.1-0.1,9.1-0.3c0,1.2,0,2.5,0,3.7
	c1.1-0.7,1.4-2.1,2.5-2.9C237.8,193.5,242.3,193.6,245.4,195.1z"/>
<path class="st0" d="M320.4,195.9c0,7.2,0,14.4,0,21.6c0.3,1.1,1.9,0.8,3,1.1c0,1.4,0,2.8,0,4.2c-2.9,0-5.7,0-8.6,0
	c0-0.9,0-1.8,0-2.6c-1.8,1.9-5,4.1-9.6,3.4c-0.8-0.1-2.2-0.4-3-0.8c-6.9-3.4-7.7-19.5-1.3-25.6C306.1,192.4,312.7,193.6,320.4,195.9
	z M305.8,200.4c-3.9,3.9-3.4,16.5,0.8,18.2c3.2,1.3,6.5-0.5,7.3-2.6c1.6-4.3-0.7-11.7,0.3-16.4C310.7,198.5,307.8,198.4,305.8,200.4
	z"/>
<path class="st0" d="M248.7,194.8c3.2,0,6.4,0,9.6,0c0,7.7,0,15.5,0,23.2c0.7,0.4,2.1,0.3,3,0.5c0,1.5,0,3,0,4.5
	c-3.5-0.4-8.8-0.4-12.4,0c-0.6-1-0.1-3.1-0.3-4.5c1.4,0.2,2.4-0.1,3-0.8c0.4-5.3,0.4-12.4,0-17.7c-0.4-0.8-1.9-0.4-3-0.5
	C248.7,198,248.7,196.4,248.7,194.8z"/>
<path class="st2" d="M337.7,209.6c0,2.4,0,4.7,0,7c0,0.2,0.4,0.5,0.6,0.6c0.9,0.2,1.9,0.2,2.8,0.4c0.2,0,0.6,0.3,0.6,0.5
	c0,1.5,0,3.1,0,4.7h-14.9c0-1.6,0-3.2,0-4.7c0-0.2,0.3-0.4,0.5-0.5c0.8-0.2,1.7-0.3,2.6-0.4c0.5-0.1,0.7-0.2,0.7-0.8
	c0-8.3,0-16.6,0-24.9c0-0.6-0.2-0.8-0.7-0.8c-0.8-0.1-1.7-0.2-2.5-0.4c-0.2-0.1-0.6-0.3-0.6-0.5c0-1.6,0-3.1,0-4.8
	c2.4-0.1,4.7-0.2,6.9-0.2c3.4,0,6.7-0.1,10.1,0.1c1.8,0.1,3.7,0.7,5.4,1.4c2.7,1.1,4.4,3.2,5.2,5.9c0.9,3.1,0.9,6.3-0.1,9.3
	c-1.5,4.4-4.7,6.8-9.1,7.6c-1.4,0.3-2.8,0.3-4.2,0.4C340.1,209.7,338.9,209.6,337.7,209.6 M337.7,204c1.8,0,3.4,0.1,5.1,0
	c2.7-0.2,4.5-1.7,5-4.2c0.3-1.5,0.3-3.1,0.2-4.6c-0.2-2.1-1.4-3.7-3.5-4.4c-2.2-0.7-4.5-0.4-6.8-0.3V204z"/>
<path class="st2" d="M437.6,217.7c-1.8,0.2-3-0.7-3.8-2.2c-1.6-2.8-3.2-5.5-4.9-8.2c-0.3-0.5-0.2-0.8,0.1-1.3
	c1.3-1.5,2.7-2.9,3.9-4.4c1.2-1.6,2.6-2.8,4.7-2.8c0.2,0,0.5-0.4,0.5-0.6c0-1.5,0-2.6,0-4.6h-12c0,2,0,3.1,0,4.6
	c0,0.2,0.3,0.5,0.5,0.5c0.6,0.2,1.3,0.4,2,0.6c-1.4,1.7-2.8,3.3-4.1,4.9c-1.3,1.6-2.6,3.3-3.8,5c-0.1,0-0.5-0.1-0.5-0.1v-26.6h-9.5
	c0,2,0,2.8,0,4c0.2,0.1,0.2,0.2,0.3,0.2c0.7,0.1,1.3,0.2,2,0.2c1.3,0.1,1.2,0.1,1.2,1.4c0,9.3,0,18.6,0,27.9c0,0.2,0.2,0.5,0.1,0.7
	c-0.1,0.3-0.3,0.6-0.5,0.6c-0.8,0.2-1.5,0.2-2.3,0.4c-0.3,0.1-0.7,0.4-0.7,0.7c-0.1,1.2,0,2.4,0,3.6c0,0.5,0.2,0.6,0.7,0.6
	c3.7,0,7.4,0,11.1,0c0.5,0,0.7-0.2,0.7-0.7c0-0.7,0-1.5,0-2.2c0-1.9,0-1.9-1.9-2.3c-0.3-0.1-0.7-0.2-0.7-0.3c0-0.7-0.2-1.6,0.2-2.1
	c0.9-1.3,2.1-2.5,3.2-3.7c0.2,0.4,0.4,0.7,0.6,1c1.7,2.8,3.3,5.7,5.1,8.5c1.5,2.4,3.8,2.7,6.3,2.1c1.2-0.3,2-1.1,2.2-2.4
	c0.1-0.7,0.1-1.4,0.2-2.1C438.5,218,438.3,217.7,437.6,217.7z"/>
<path class="st2" d="M380.5,195.9c0,7.2,0,14.4,0,21.6c0.3,1.1,1.9,0.8,3,1.1c0,1.4,0,2.8,0,4.2c-2.9,0-5.7,0-8.6,0
	c0-0.9,0-1.8,0-2.6c-1.8,1.9-5,4.1-9.6,3.4c-0.8-0.1-2.2-0.4-3-0.8c-6.9-3.4-7.7-19.5-1.3-25.6C366.2,192.4,372.8,193.6,380.5,195.9
	z M365.9,200.4c-3.9,3.9-3.4,16.5,0.8,18.2c3.2,1.3,6.5-0.5,7.3-2.6c1.6-4.3-0.7-11.7,0.3-16.4C370.8,198.5,367.9,198.4,365.9,200.4
	z"/>
<path class="st2" d="M409.6,195.1c0,2.8,0,5.6,0,8.4c-1.5,0.3-3.6,0.1-5,0.5c0-1.4,0.2-3-0.3-4c-8.5-2.7-6.4,10.2-6.6,17.9
	c1.3,0.4,2.9,0.5,4.5,0.5c0.2,1.2-0.3,3.2,0.3,4c-4.4,0.6-9.8,0.1-14.6,0.3c0-1.3,0-2.6,0-4c0.7-0.5,2.3,0,3-0.5
	c1-5,0.5-12.8,0.3-18.2c-0.8-0.7-2.3-0.6-3.5-0.8c0.4-0.9,0.5-3.4,0-4.2c2.5-0.6,6.1-0.1,9.1-0.3c0,1.2,0,2.5,0,3.7
	c1.1-0.7,1.4-2.1,2.5-2.9C401.9,193.5,406.5,193.6,409.6,195.1z"/>
</svg>
