<?xml version="1.0" encoding="utf-8"?>
<!-- Generator: Adobe Illustrator 21.0.0, SVG Export Plug-In . SVG Version: 6.00 Build 0)  -->
<svg version="1.1" id="Laag_1" xmlns="http://www.w3.org/2000/svg" xmlns:xlink="http://www.w3.org/1999/xlink" x="0px" y="0px"
	 viewBox="0 0 800 200" style="enable-background:new 0 0 800 200;" xml:space="preserve">
<style type="text/css">
	.st0{fill:#172338;}
	.st1{fill:#FCC635;}
</style>
<path class="st0" d="M271.7,43.8c11.9-3.9,17.6,4.7,15.4,14.6c-3.3,13.2-26.2,8.5-22.3-8C265.3,48.2,267.8,45.1,271.7,43.8z"/>
<path class="st0" d="M329.6,43.2c0,32.3,0,64.5,0,96.8c1.9,1.1,5.8,0.8,8.3,1.4c0.6,3.3-0.8,8.8,0.8,11c-10.5,1.7-24,0.3-35.6,0.8
	c0-3.9,0-7.7,0-11.6c3.3,0.3,6.6,0.3,8.3-1.4c1.7-25.4,0.3-54,0.8-80.8c-1.1-2.8-5.2-2.8-9.1-3c0.3-4.1-0.8-9.9,0.8-13
	C312.2,43.2,321,43.2,329.6,43.2z"/>
<path class="st0" d="M373.4,43.2c0,32,0,64,0,95.9c1.4,2.5,6.1,1.7,9.1,2.2c0,3.9,0,7.7,0,11.6c-11.9,0-23.7,0-35.6,0
	c0-3.9,0-7.7,0-11.6c3.3,0.3,6.6,0.3,8.3-1.4c1.7-25.4,0.3-54,0.8-80.8c-1.1-2.8-5.2-2.8-9.1-3c0.3-4.1-0.8-9.9,0.8-13
	C356,43.2,364.9,43.2,373.4,43.2z"/>
<path class="st0" d="M95.5,54.8c0,9.1,0,17.9,0,27c-5.5-0.3-9.1,1.4-14.6,0.8c0-5.2,0.3-11-0.8-15.2c-11-5-23.2-3.6-30.6,2.2
	c-16.5,12.7-14.9,54.9-0.8,66.2c6.3,5,21.8,6.3,30.6,0.8c0-7.4,0-15.2,0-22.6c-2.5-1.7-8-0.3-11.9-0.8c0-4.4,0-8.8,0-13
	c12.4,0,24.5,0,36.9,0c0,3.6,0,7.2,0,11c-0.6,2.8-5.5,0.8-6.9,3c-1.4,9.4-0.3,21.5-0.8,32c-10.5,6.6-23.2,11.3-40.2,9.4
	c-28.4-3-38.9-30.3-36.9-58.2c1.9-29.5,20.1-50.4,53.5-48C81.7,49.5,86.7,51.7,95.5,54.8z"/>
<path class="st0" d="M142.1,74.4c22.6-3.6,36.7,8.5,38.9,28.4c2.8,22.1-4.4,42.2-18.2,49.3c-12.7,6.6-33.4,3.6-41.6-7.2
	c-9.1-11.9-11.9-43.8-0.8-59C125,79.9,132.5,76,142.1,74.4z M138.8,140c6.1,4.4,14.6,2.2,18.2-0.8c8-6.9,10.5-39.7,0.8-48.8
	c-3.9-3.6-9.6-3.6-14.6-2.2C128.3,92.3,127.2,131.7,138.8,140z"/>
<path class="st0" d="M250.7,76.6c0,7.7,0,15.4,0,23.2c-4.1,0.8-9.9,0.3-13.8,1.4c0-3.9,0.6-8.3-0.8-11
	c-23.4-7.4-17.6,28.1-18.2,49.3c3.6,1.1,8,1.4,12.4,1.4c0.6,3.3-0.8,8.8,0.8,11c-12.1,1.7-27,0.3-40.2,0.8c0-3.6,0-7.2,0-11
	c1.9-1.4,6.3,0,8.3-1.4c2.8-13.8,1.4-35.3,0.8-50.2c-2.2-1.9-6.3-1.7-9.6-2.2c1.1-2.5,1.4-9.4,0-11.6c6.9-1.7,16.8-0.3,25.1-0.8
	c0,3.3,0,6.9,0,10.2c3-1.9,3.9-5.8,6.9-8C229.8,72.1,242.2,72.4,250.7,76.6z"/>
<path class="st0" d="M457.5,78.8c0,19.8,0,39.7,0,59.5c0.8,3,5.2,2.2,8.3,3c0,3.9,0,7.7,0,11.6c-8,0-15.7,0-23.7,0c0-2.5,0-5,0-7.2
	c-5,5.2-13.8,11.3-26.5,9.4c-2.2-0.3-6.1-1.1-8.3-2.2c-19-9.4-21.2-53.8-3.6-70.6C418.1,69.1,436.3,72.4,457.5,78.8z M417.2,91.2
	c-10.8,10.8-9.4,45.5,2.2,50.2c8.8,3.6,17.9-1.4,20.1-7.2c4.4-11.9-1.9-32.3,0.8-45.2C430.7,85.9,422.7,85.7,417.2,91.2z"/>
<path class="st0" d="M259.8,75.7c8.8,0,17.6,0,26.5,0c0,21.2,0,42.7,0,64c1.9,1.1,5.8,0.8,8.3,1.4c0,4.1,0,8.3,0,12.4
	c-9.6-1.1-24.3-1.1-34.2,0c-1.7-2.8-0.3-8.5-0.8-12.4c3.9,0.6,6.6-0.3,8.3-2.2c1.1-14.6,1.1-34.2,0-48.8c-1.1-2.2-5.2-1.1-8.3-1.4
	C259.8,84.6,259.8,80.1,259.8,75.7z"/>
<path class="st1" d="M505.2,116.5c0,6.6,0,13,0,19.3c0,0.6,1.1,1.4,1.7,1.7c2.5,0.6,5.2,0.6,7.7,1.1c0.6,0,1.7,0.8,1.7,1.4
	c0,4.1,0,8.5,0,13h-41.1c0-4.4,0-8.8,0-13c0-0.6,0.8-1.1,1.4-1.4c2.2-0.6,4.7-0.8,7.2-1.1c1.4-0.3,1.9-0.6,1.9-2.2
	c0-22.9,0-45.8,0-68.6c0-1.7-0.6-2.2-1.9-2.2c-2.2-0.3-4.7-0.6-6.9-1.1c-0.6-0.3-1.7-0.8-1.7-1.4c0-4.4,0-8.5,0-13.2
	c6.6-0.3,13-0.6,19-0.6c9.4,0,18.5-0.3,27.8,0.3c5,0.3,10.2,1.9,14.9,3.9c7.4,3,12.1,8.8,14.3,16.3c2.5,8.5,2.5,17.4-0.3,25.6
	c-4.1,12.1-13,18.7-25.1,21c-3.9,0.8-7.7,0.8-11.6,1.1C511.8,116.8,508.5,116.5,505.2,116.5 M505.2,101.1c5,0,9.4,0.3,14.1,0
	c7.4-0.6,12.4-4.7,13.8-11.6c0.8-4.1,0.8-8.5,0.6-12.7c-0.6-5.8-3.9-10.2-9.6-12.1c-6.1-1.9-12.4-1.1-18.7-0.8L505.2,101.1
	L505.2,101.1z"/>
<path class="st1" d="M780.6,138.9c-5,0.6-8.3-1.9-10.5-6.1c-4.4-7.7-8.8-15.2-13.5-22.6c-0.8-1.4-0.6-2.2,0.3-3.6
	c3.6-4.1,7.4-8,10.8-12.1c3.3-4.4,7.2-7.7,13-7.7c0.6,0,1.4-1.1,1.4-1.7c0-4.1,0-7.2,0-12.7h-33.1c0,5.5,0,8.5,0,12.7
	c0,0.6,0.8,1.4,1.4,1.4c1.7,0.6,3.6,1.1,5.5,1.7c-3.9,4.7-7.7,9.1-11.3,13.5c-3.6,4.4-7.2,9.1-10.5,13.8c-0.3,0-1.4-0.3-1.4-0.3
	V41.8h-26.2c0,5.5,0,7.7,0,11c0.6,0.3,0.6,0.6,0.8,0.6c1.9,0.3,3.6,0.6,5.5,0.6c3.6,0.3,3.3,0.3,3.3,3.9c0,25.6,0,51.3,0,76.9
	c0,0.6,0.6,1.4,0.3,1.9c-0.3,0.8-0.8,1.7-1.4,1.7c-2.2,0.6-4.1,0.6-6.3,1.1c-0.8,0.3-1.9,1.1-1.9,1.9c-0.3,3.3,0,6.6,0,9.9
	c0,1.4,0.6,1.7,1.9,1.7c10.2,0,20.4,0,30.6,0c1.4,0,1.9-0.6,1.9-1.9c0-1.9,0-4.1,0-6.1c0-5.2,0-5.2-5.2-6.3
	c-0.8-0.3-1.9-0.6-1.9-0.8c0-1.9-0.6-4.4,0.6-5.8c2.5-3.6,5.8-6.9,8.8-10.2c0.6,1.1,1.1,1.9,1.7,2.8c4.7,7.7,9.1,15.7,14.1,23.4
	c4.1,6.6,10.5,7.4,17.4,5.8c3.3-0.8,5.5-3,6.1-6.6c0.3-1.9,0.3-3.9,0.6-5.8C783,139.7,782.5,138.9,780.6,138.9z"/>
<path class="st1" d="M623.2,78.8c0,19.8,0,39.7,0,59.5c0.8,3,5.2,2.2,8.3,3c0,3.9,0,7.7,0,11.6c-8,0-15.7,0-23.7,0c0-2.5,0-5,0-7.2
	c-5,5.2-13.8,11.3-26.5,9.4c-2.2-0.3-6.1-1.1-8.3-2.2c-19-9.4-21.2-53.8-3.6-70.6C583.7,69.1,601.9,72.4,623.2,78.8z M582.9,91.2
	c-10.8,10.8-9.4,45.5,2.2,50.2c8.8,3.6,17.9-1.4,20.1-7.2c4.4-11.9-1.9-32.3,0.8-45.2C596.4,85.9,588.4,85.7,582.9,91.2z"/>
<path class="st1" d="M703.4,76.6c0,7.7,0,15.4,0,23.2c-4.1,0.8-9.9,0.3-13.8,1.4c0-3.9,0.6-8.3-0.8-11
	c-23.4-7.4-17.6,28.1-18.2,49.3c3.6,1.1,8,1.4,12.4,1.4c0.6,3.3-0.8,8.8,0.8,11c-12.1,1.7-27,0.3-40.2,0.8c0-3.6,0-7.2,0-11
	c1.9-1.4,6.3,0,8.3-1.4c2.8-13.8,1.4-35.3,0.8-50.2c-2.2-1.9-6.3-1.7-9.6-2.2c1.1-2.5,1.4-9.4,0-11.6c6.9-1.7,16.8-0.3,25.1-0.8
	c0,3.3,0,6.9,0,10.2c3-1.9,3.9-5.8,6.9-8C682.1,72.1,694.8,72.4,703.4,76.6z"/>
</svg>
