<?xml version="1.0" encoding="utf-8"?>
<!-- Generator: Adobe Illustrator 21.0.0, SVG Export Plug-In . SVG Version: 6.00 Build 0)  -->
<svg version="1.1" id="Laag_1" xmlns="http://www.w3.org/2000/svg" xmlns:xlink="http://www.w3.org/1999/xlink" x="0px" y="0px"
	 viewBox="0 0 3500 100" style="enable-background:new 0 0 3500 100;" xml:space="preserve">
<style type="text/css">
	.st0{fill:#FCC635;}
	.st1{fill:#FFFFFF;}
</style>
<polygon class="st0" points="1954.1,98.2 2190.9,98.2 2499.4,98.2 2627,98.2 3172,98.2 3172,23.8 2627,23.8 2499.4,23.8 
	2190.9,23.8 1954.1,23.8 1518,23.8 1518,98.2 "/>
<rect x="2979.3" y="24" class="st1" width="48.8" height="74.2"/>
<rect x="2870.4" y="24" class="st1" width="48.8" height="74.2"/>
<rect x="2761.2" y="24" class="st1" width="48.8" height="74.2"/>
<rect x="2652.4" y="24" class="st1" width="48.8" height="74.2"/>
<rect x="2543.2" y="24" class="st1" width="48.8" height="74.2"/>
<rect x="2543.2" y="24" class="st1" width="48.8" height="74.2"/>
<rect x="2434.3" y="24" class="st1" width="48.8" height="74.2"/>
<rect x="2325.1" y="24" class="st1" width="48.8" height="74.2"/>
<rect x="2216.3" y="24" class="st1" width="48.8" height="74.2"/>
<rect x="2107.1" y="24" class="st1" width="48.8" height="74.2"/>
<rect x="1998.2" y="24" class="st1" width="48.8" height="74.2"/>
<rect x="2216.3" y="24" class="st1" width="48.8" height="74.2"/>
<rect x="2107.1" y="24" class="st1" width="48.8" height="74.2"/>
<rect x="1998.2" y="24" class="st1" width="48.8" height="74.2"/>
<rect x="1889.3" y="24" class="st1" width="48.8" height="74.2"/>
<rect x="2107.1" y="24" class="st1" width="48.8" height="74.2"/>
<rect x="1998.2" y="24" class="st1" width="48.8" height="74.2"/>
<rect x="1889.3" y="24" class="st1" width="48.8" height="74.2"/>
<rect x="1780.2" y="24" class="st1" width="48.8" height="74.2"/>
<rect x="1671.3" y="24" class="st1" width="48.8" height="74.2"/>
<rect x="1562.1" y="24" class="st1" width="48.8" height="74.2"/>
<polygon class="st0" points="1218.9,24.3 982.1,24.3 673.6,24.3 546,24.3 1,24.3 1,98.7 546,98.7 673.6,98.7 982.1,98.7 
	1218.9,98.7 1655,98.7 1655,24.3 "/>
<rect x="144.9" y="24.3" class="st1" width="48.8" height="74.2"/>
<rect x="253.8" y="24.3" class="st1" width="48.8" height="74.2"/>
<rect x="363" y="24.3" class="st1" width="48.8" height="74.2"/>
<rect x="471.8" y="24.3" class="st1" width="48.8" height="74.2"/>
<rect x="581" y="24.3" class="st1" width="48.8" height="74.2"/>
<rect x="581" y="24.3" class="st1" width="48.8" height="74.2"/>
<rect x="689.9" y="24.3" class="st1" width="48.8" height="74.2"/>
<rect x="799.1" y="24.3" class="st1" width="48.8" height="74.2"/>
<rect x="907.9" y="24.3" class="st1" width="48.8" height="74.2"/>
<rect x="1017.1" y="24.3" class="st1" width="48.8" height="74.2"/>
<rect x="1126" y="24.3" class="st1" width="48.8" height="74.2"/>
<rect x="907.9" y="24.3" class="st1" width="48.8" height="74.2"/>
<rect x="1017.1" y="24.3" class="st1" width="48.8" height="74.2"/>
<rect x="1126" y="24.3" class="st1" width="48.8" height="74.2"/>
<rect x="1234.9" y="24.3" class="st1" width="48.8" height="74.2"/>
<rect x="1017.1" y="24.3" class="st1" width="48.8" height="74.2"/>
<rect x="1126" y="24.3" class="st1" width="48.8" height="74.2"/>
<rect x="1234.9" y="24.3" class="st1" width="48.8" height="74.2"/>
<rect x="1344" y="24.3" class="st1" width="48.8" height="74.2"/>
<rect x="1452.9" y="24.3" class="st1" width="48.8" height="74.2"/>
<rect x="1562.1" y="24.3" class="st1" width="48.8" height="74.2"/>
</svg>
