<?xml version="1.0" encoding="utf-8"?>
<!-- Generator: Adobe Illustrator 15.0.0, SVG Export Plug-In . SVG Version: 6.00 Build 0)  -->
<!DOCTYPE svg PUBLIC "-//W3C//DTD SVG 1.1//EN" "http://www.w3.org/Graphics/SVG/1.1/DTD/svg11.dtd">
<svg version="1.1" id="Layer_1" xmlns="http://www.w3.org/2000/svg" xmlns:xlink="http://www.w3.org/1999/xlink" x="0px" y="0px"
	 width="300px" height="300px" viewBox="0 0 300 300" enable-background="new 0 0 300 300" xml:space="preserve">
<path fill-rule="evenodd" clip-rule="evenodd" fill="#172338" d="M103.424,130.73c4.28-1.388,6.367,1.691,5.5,5.224
	c-1.164,4.736-9.386,3.021-8-2.873C101.109,132.291,102.016,131.187,103.424,130.73z"/>
<path fill-rule="evenodd" clip-rule="evenodd" fill="#172338" d="M124.174,130.469c0,11.579,0,23.159,0,34.738
	c0.74,0.444,2.059,0.287,3,0.522c0.162,1.224-0.328,3.127,0.25,3.918c-3.751,0.608-8.584,0.087-12.75,0.261c0-1.393,0-2.786,0-4.179
	c1.215,0.05,2.389,0.059,3-0.522c0.578-9.146,0.086-19.411,0.25-28.992c-0.424-1.037-1.915-0.96-3.25-1.045
	c0.129-1.52-0.281-3.602,0.25-4.701C118.006,130.469,121.09,130.469,124.174,130.469z"/>
<path fill-rule="evenodd" clip-rule="evenodd" fill="#172338" d="M139.924,130.469c0,11.492,0,22.984,0,34.477
	c0.518,0.853,2.144,0.546,3.25,0.784c0,1.393,0,2.786,0,4.179c-4.25,0-8.5,0-12.75,0c0-1.393,0-2.786,0-4.179
	c1.215,0.05,2.389,0.059,3-0.522c0.578-9.146,0.086-19.411,0.25-28.992c-0.424-1.037-1.915-0.96-3.25-1.045
	c0.129-1.52-0.281-3.602,0.25-4.701C133.756,130.469,136.84,130.469,139.924,130.469z"/>
<path fill-rule="evenodd" clip-rule="evenodd" fill="#172338" d="M40.174,134.648c0,3.221,0,6.442,0,9.663
	c-1.943-0.114-3.223,0.465-5.25,0.262c-0.039-1.875,0.148-3.986-0.25-5.485c-3.951-1.806-8.304-1.266-11,0.784
	c-5.958,4.527-5.308,19.702-0.25,23.768c2.269,1.823,7.811,2.29,11,0.262c0-2.699,0-5.398,0-8.098
	c-0.922-0.604-2.913-0.091-4.25-0.261c0-1.567,0-3.135,0-4.701c4.416,0,8.832,0,13.25,0c0,1.306,0,2.611,0,3.918
	c-0.189,1.021-2.029,0.318-2.5,1.044c-0.531,3.363-0.121,7.71-0.25,11.492c-3.801,2.413-8.271,4.062-14.5,3.396
	c-10.219-1.093-13.937-10.874-13.25-20.895c0.726-10.581,7.274-18.135,19.25-17.238C35.24,132.788,37.021,133.608,40.174,134.648z"
	/>
<path fill-rule="evenodd" clip-rule="evenodd" fill="#172338" d="M56.924,141.7c8.121-1.283,13.133,3.05,14,10.187
	c0.961,7.911-1.566,15.164-6.5,17.761c-4.582,2.41-12.006,1.261-15-2.612c-3.3-4.267-4.244-15.747-0.25-21.156
	C50.779,143.704,53.379,142.26,56.924,141.7z M55.674,165.207c2.174,1.538,5.291,0.771,6.5-0.262
	c2.855-2.439,3.713-14.235,0.25-17.499c-1.338-1.26-3.422-1.306-5.25-0.784C51.898,148.167,51.533,162.277,55.674,165.207z"/>
<path fill-rule="evenodd" clip-rule="evenodd" fill="#172338" d="M95.924,142.483c0,2.786,0,5.572,0,8.358
	c-1.529,0.317-3.572,0.1-5,0.522c-0.043-1.35,0.154-2.948-0.25-3.918c-8.463-2.661-6.317,10.054-6.5,17.761
	c1.273,0.411,2.842,0.513,4.5,0.522c0.162,1.224-0.328,3.127,0.25,3.918c-4.334,0.608-9.75,0.087-14.5,0.261
	c0-1.306,0-2.612,0-3.918c0.66-0.528,2.295-0.039,3-0.522c0.953-4.94,0.527-12.658,0.25-18.021c-0.744-0.703-2.244-0.617-3.5-0.784
	c0.362-0.848,0.453-3.346,0-4.179c2.5-0.608,6.082-0.088,9-0.261c0,1.219,0,2.438,0,3.656c1.066-0.675,1.43-2.043,2.5-2.873
	C88.33,140.944,92.863,141.035,95.924,142.483z"/>
<path fill-rule="evenodd" clip-rule="evenodd" fill="#172338" d="M170.174,143.268c0,7.139,0,14.277,0,21.417
	c0.317,1.061,1.904,0.796,3,1.045c0,1.393,0,2.786,0,4.179c-2.834,0-5.668,0-8.5,0c0-0.871,0-1.741,0-2.612
	c-1.83,1.926-4.965,4.05-9.5,3.396c-0.762-0.109-2.15-0.368-3-0.783c-6.818-3.33-7.652-19.317-1.25-25.335
	C156.027,139.775,162.539,141.015,170.174,143.268z M155.674,147.707c-3.868,3.825-3.379,16.319,0.75,18.022
	c3.197,1.319,6.443-0.478,7.25-2.612c1.611-4.263-0.701-11.547,0.25-16.193C160.555,145.895,157.629,145.773,155.674,147.707z"/>
<path fill-rule="evenodd" clip-rule="evenodd" fill="#172338" d="M99.174,142.223c3.166,0,6.332,0,9.5,0c0,7.661,0,15.322,0,22.984
	c0.74,0.444,2.059,0.287,3,0.522c0,1.479,0,2.96,0,4.439c-3.509-0.427-8.744-0.44-12.25,0c-0.578-0.963-0.088-3.043-0.25-4.439
	c1.393,0.149,2.385-0.119,3-0.784c0.413-5.245,0.413-12.253,0-17.499c-0.381-0.82-1.918-0.435-3-0.522
	C99.174,145.356,99.174,143.789,99.174,142.223z"/>
<path fill="#FCC635" d="M187.268,156.887c0,2.413-0.018,4.689,0.026,6.964c0.005,0.204,0.383,0.526,0.63,0.576
	c0.92,0.18,1.863,0.241,2.786,0.413c0.23,0.044,0.585,0.336,0.591,0.523c0.047,1.53,0.026,3.062,0.026,4.652h-14.731
	c0-1.577-0.017-3.135,0.023-4.689c0.006-0.174,0.326-0.444,0.536-0.487c0.837-0.164,1.685-0.281,2.533-0.367
	c0.515-0.055,0.741-0.236,0.739-0.796c-0.014-8.213-0.014-16.425,0-24.639c0-0.547-0.193-0.752-0.728-0.802
	c-0.821-0.076-1.643-0.194-2.449-0.359c-0.241-0.05-0.616-0.318-0.621-0.494c-0.049-1.556-0.028-3.113-0.028-4.751
	c2.365-0.072,4.611-0.183,6.859-0.201c3.332-0.025,6.676-0.135,9.994,0.085c1.807,0.12,3.643,0.662,5.338,1.338
	c2.656,1.059,4.391,3.135,5.196,5.881c0.903,3.078,0.929,6.204-0.083,9.256c-1.438,4.345-4.652,6.692-9.021,7.54
	c-1.359,0.262-2.77,0.28-4.162,0.348C189.618,156.932,188.508,156.887,187.268,156.887 M187.308,151.267
	c1.746,0,3.405,0.119,5.04-0.027c2.664-0.236,4.469-1.727,4.949-4.202c0.287-1.483,0.333-3.063,0.184-4.569
	c-0.207-2.105-1.365-3.688-3.459-4.336c-2.191-0.678-4.439-0.386-6.714-0.257V151.267z"/>
<path fill="#FCC635" d="M286.139,164.896c-1.781,0.156-2.947-0.713-3.809-2.208c-1.575-2.742-3.2-5.455-4.834-8.163
	c-0.31-0.513-0.242-0.841,0.143-1.266c1.303-1.438,2.639-2.852,3.826-4.38c1.223-1.571,2.568-2.777,4.695-2.765
	c0.176,0.002,0.502-0.41,0.506-0.559c0.039-1.467,0.023-2.557,0.023-4.557h-11.916c0,2-0.016,3.09,0.021,4.531
	c0.004,0.16,0.281,0.468,0.475,0.528c0.612,0.193,1.246,0.356,2.025,0.548c-1.42,1.697-2.794,3.262-4.055,4.896
	c-1.242,1.607-2.614,3.312-3.793,4.973c-0.067-0.045-0.447-0.08-0.447-0.124V130h-9.435c-0.03,2-0.017,2.752-0.017,4
	c0.152,0.084,0.199,0.203,0.249,0.209c0.709,0.073,1.302,0.197,2.013,0.244c1.297,0.086,1.189,0.112,1.189,1.423
	c0,9.212,0,18.424,0,27.636c0,0.229,0.178,0.495,0.086,0.675c-0.131,0.254-0.297,0.579-0.537,0.64
	c-0.743,0.187-1.497,0.213-2.237,0.404c-0.273,0.068-0.646,0.414-0.659,0.651c-0.07,1.193-0.029,2.392-0.023,3.587
	c0.003,0.451,0.219,0.631,0.697,0.628c3.651-0.016,7.303-0.016,10.955,0c0.534,0.003,0.702-0.217,0.694-0.711
	c-0.011-0.741,0.028-1.483,0.021-2.225c-0.021-1.846-0.029-1.838-1.838-2.269c-0.256-0.062-0.689-0.215-0.691-0.339
	c-0.023-0.692-0.188-1.564,0.156-2.052c0.91-1.296,2.053-2.427,3.176-3.703c0.244,0.391,0.441,0.694,0.625,1.007
	c1.677,2.814,3.293,5.665,5.038,8.436c1.489,2.366,3.769,2.662,6.251,2.11c1.224-0.271,1.969-1.121,2.154-2.378
	c0.102-0.702,0.094-1.421,0.172-2.127C287.115,165.151,286.863,164.834,286.139,164.896z"/>
<path fill-rule="evenodd" clip-rule="evenodd" fill="#FCC635" d="M229.674,143.268c0,7.139,0,14.277,0,21.417
	c0.317,1.061,1.904,0.796,3,1.044c0,1.394,0,2.786,0,4.18c-2.834,0-5.668,0-8.5,0c0-0.871,0-1.741,0-2.612
	c-1.83,1.926-4.965,4.05-9.5,3.396c-0.762-0.109-2.15-0.368-3-0.783c-6.818-3.331-7.652-19.317-1.25-25.335
	C215.527,139.775,222.039,141.015,229.674,143.268z M215.174,147.707c-3.868,3.825-3.379,16.319,0.75,18.021
	c3.197,1.32,6.443-0.477,7.25-2.611c1.611-4.264-0.701-11.547,0.25-16.193C220.055,145.895,217.129,145.773,215.174,147.707z"/>
<path fill-rule="evenodd" clip-rule="evenodd" fill="#FCC635" d="M258.424,142.484c0,2.785,0,5.572,0,8.357
	c-1.529,0.318-3.572,0.1-5,0.522c-0.043-1.349,0.154-2.948-0.25-3.917c-8.463-2.662-6.317,10.053-6.5,17.76
	c1.273,0.411,2.842,0.513,4.5,0.522c0.162,1.224-0.328,3.127,0.25,3.918c-4.334,0.608-9.75,0.087-14.5,0.261
	c0-1.306,0-2.612,0-3.918c0.66-0.528,2.295-0.039,3-0.522c0.953-4.94,0.527-12.658,0.25-18.021c-0.744-0.703-2.244-0.617-3.5-0.785
	c0.362-0.848,0.453-3.346,0-4.178c2.5-0.609,6.082-0.088,9-0.262c0,1.219,0,2.438,0,3.656c1.066-0.675,1.43-2.043,2.5-2.873
	C250.83,140.945,255.363,141.035,258.424,142.484z"/>
</svg>
