<?xml version="1.0" encoding="utf-8"?>
<!-- Generator: Adobe Illustrator 15.0.0, SVG Export Plug-In . SVG Version: 6.00 Build 0)  -->
<!DOCTYPE svg PUBLIC "-//W3C//DTD SVG 1.1//EN" "http://www.w3.org/Graphics/SVG/1.1/DTD/svg11.dtd">
<svg version="1.1" id="Layer_1" xmlns="http://www.w3.org/2000/svg" xmlns:xlink="http://www.w3.org/1999/xlink" x="0px" y="0px"
	 width="300px" height="300px" viewBox="0 0 300 300" enable-background="new 0 0 300 300" xml:space="preserve">
<path fill-rule="evenodd" clip-rule="evenodd" fill="#FFFFFF" d="M147.437,106.254c0.352-4.567,1.349-10.061-1.596-14.762
	c-1.705-2.727-5.422-3.723-7.855-3.607c-7.308,0.347-15.128,7.96-19.265,12.631c-1.174,1.325-2.02,3.019-3.113,3.607
	c-0.996,0.535-3.055,0.55-4.682,0.893c-8.984,1.894-23.727,6.906-21.51,17.245c0.656,3.051,3.822,5.805,5.871,7.166
	c2.098,1.395,4.182,1.957,6.814,3.305c-0.916,7.775-0.594,14.602,4.041,23c9.895,17.929,29.005,23.1,45.389,15.113
	c1.559-0.76,3.238-1.699,4.762-2.75c14.002-9.658,18.994-27.196,11.262-42.994C162.809,115.399,154.6,108.643,147.437,106.254z"/>
<path fill-rule="evenodd" clip-rule="evenodd" fill="#172338" d="M131.541,133.225c-1.127,4.623-9.107,6.133-10.834,1.732
	c-0.785-2.004,0.881-4.16,3.586-4.787C126.697,129.613,129.994,131.028,131.541,133.225z"/>
<path fill-rule="evenodd" clip-rule="evenodd" fill="#172338" d="M133.621,132.325c-1.689-2.929-0.795-7.297,2.017-9.006
	c1.639-0.996,3.705-1.062,4.771,0.263C143.337,127.217,138.106,133.195,133.621,132.325z"/>
<path fill-rule="evenodd" clip-rule="evenodd" fill="#172338" d="M152.619,135.23c0.146-0.084,0.289-0.166,0.434-0.25
	c10.307,11.375-4.922,21.259-17.282,26.566c-1.464,0.627-3.157,1.803-4.552,1.117c-1.008-1.99,2.27-2.72,3.894-3.755
	c7.977-5.085,17.597-10.434,17.562-18.584c-0.004-1.378-0.848-2.637-0.789-4.368C152.393,135.791,152.369,135.471,152.619,135.23z"
	/>
<path fill-rule="evenodd" clip-rule="evenodd" fill="#172338" d="M147.437,106.254c0.352-4.567,1.349-10.061-1.596-14.762
	c-1.705-2.727-5.422-3.723-7.855-3.607c-7.31,0.347-15.13,7.96-19.267,12.631c-1.172,1.325-2.018,3.019-3.113,3.607
	c-0.994,0.535-3.055,0.55-4.68,0.893c-8.986,1.894-23.727,6.906-21.51,17.245c0.654,3.051,3.822,5.805,5.869,7.166
	c2.098,1.395,4.182,1.957,6.814,3.305c-0.916,7.775-0.592,14.602,4.043,23c9.893,17.929,29.005,23.101,45.389,15.113
	c1.559-0.76,3.238-1.699,4.762-2.75c14.002-9.658,18.994-27.196,11.262-42.994C162.809,115.399,154.6,108.643,147.437,106.254z
	 M123.885,102.962c1.098-2.063,2.859-3.933,5.797-5.458c1.662,0.69,3.125,0.976,4.17,2.72
	C138.056,107.257,125.627,113.002,123.885,102.962z M103.236,117.442c2.799,2.085,7.895,1.125,10.295-1.818
	C113.195,120.292,105.93,123.139,103.236,117.442z M166.428,144.146c1.123,18.594-32.736,37.439-45.656,19.424
	c-4.182-5.832-5.986-12.639-6.936-18.013c-0.217-1.231,0.074-2.854-0.312-4.042c-0.826-2.551-2.104-3.497-2.484-5.804
	c-1.109-6.709,5.113-15.793,14.316-15.202c5.295-9.581,16.776-8.772,21.28-4.143c0.98,1.008,1.778,3.104,2.829,4.398
	c1.453,1.789,4.1,3.096,6.039,4.959C159.875,129.924,166.012,137.258,166.428,144.146z"/>
<path fill-rule="evenodd" clip-rule="evenodd" fill="#172338" d="M222.004,126.17c-7.219-15.318-19.785-16.33-30.439-19.222
	c-10.082-2.736-19.576-5.007-29.111-7.923c1.385-2.733-2.299-7.711-4.883-11.959c-2.039-3.352-3.697-5.839-5.736-5.435
	c-1.977,0.393-1.957,2.366-2.941,2.905c-8.348-12.476-20.189-20.095-31.662-23.34c-6.711-1.897-14.963-2.745-22.545,0.953
	C84.258,67.234,80.143,76.826,78.002,84.75c-3,11.099-2.551,25.574,3.904,38.763c-1.736-0.282-3.459-0.197-4.334,0.993
	c-1.475,2.006,1.357,5.446,3.578,9.696c2.053,3.929,3.846,8.174,6.521,8.299c-2.375,10.514-5.574,19.748-8.082,30
	c-0.674,2.755-1.518,5.58-2.214,8.498h45.555c-0.017-0.006-0.033-0.01-0.05-0.016c0.477-1.805,1.26-3.521,1.158-5.494
	c-6.971-2.623-15.234-8.35-20.461-17.441c-4.629-8.047-5.498-16.58-5.215-23.529c-4.76-2.989-11.037-5.074-12.385-12.453
	c-0.482-2.645,0.391-5.188,1.371-7.125c3.613-7.141,14.305-10.86,21.65-12.5c1.773-0.396,3.717-0.31,4.896-1.018
	c1.119-0.67,1.98-2.373,3.113-3.607c7.512-8.174,20.611-17.389,28.984-9.797c5.342,4.841,3.824,10.801,4.332,16.5
	c7.021,3.396,14.713,9.375,19.467,19.221c4.01,8.3,4.184,17.15,3.307,23.727c1.154,0.819,4.549,0.233,5.338,1.744
	c0.26,0.496-0.721,3.705-0.986,4.791c-2.174,8.885-3.936,16.09-6.014,24.584c-0.279,1.138-2.932,9.002-2.406,9.833
	c0.229,0.36,3.525,0.84,5.076,1.292c12.297,3.586,24.463,7.562,36.314,10.399c3.934-17.187,8.846-36.149,13.23-54.084
	C225.125,140.01,225.15,132.848,222.004,126.17z"/>
<rect x="5" y="181" fill-rule="evenodd" clip-rule="evenodd" fill="#FCC635" width="290" height="32"/>
<rect x="20" y="181" fill-rule="evenodd" clip-rule="evenodd" fill="#FFFFFF" width="21" height="32"/>
<rect x="67" y="181" fill-rule="evenodd" clip-rule="evenodd" fill="#FFFFFF" width="21" height="32"/>
<rect x="114" y="181" fill-rule="evenodd" clip-rule="evenodd" fill="#FFFFFF" width="21" height="32"/>
<rect x="161" y="181" fill-rule="evenodd" clip-rule="evenodd" fill="#FFFFFF" width="21" height="32"/>
<rect x="208" y="181" fill-rule="evenodd" clip-rule="evenodd" fill="#FFFFFF" width="21" height="32"/>
<rect x="255" y="181" fill-rule="evenodd" clip-rule="evenodd" fill="#FFFFFF" width="21" height="32"/>
<path fill-rule="evenodd" clip-rule="evenodd" fill="#172338" d="M156.896,190.9c-12.119-3.532-22.387-6.251-33.966-9.9H77.376
	c-1.751,7.338-2.569,15.267,2.593,24.157c4.174,7.19,10.359,11.015,16.506,13.089c15.441,5.215,30.01,8.938,45.947,13.584
	c0.729,0.213,8.713,2.844,9.242,2.507c0.014-0.009,0.447-1.825,0.6-2.459c2.941-12.197,5.281-22.344,8.205-34.292
	c0.303-1.244,1.828-4.416,1.287-5.268C161.664,192.172,158.18,191.275,156.896,190.9z"/>
</svg>
